{"asset":{"copyright":"Jordan Eguiluz","generator":"Khronos glTF Blender I/O v1.8.19","version":"2.0"},"scene":0,"scenes":[{"name":"Scene","nodes":[0]}],"nodes":[{"mesh":0,"name":"1","rotation":[0.6175755858421326,0.19732457399368286,-0.23172377049922943,0.725236177444458],"scale":[0.783890426158905,2.829022169113159,0.8402195572853088],"translation":[-0.517858624458313,0.011115913279354572,0.10876435786485672]}],"materials":[{"alphaMode":"BLEND","doubleSided":true,"name":"1","pbrMetallicRoughness":{"baseColorTexture":{"index":0},"metallicFactor":0,"roughnessFactor":0.5}},{"doubleSided":true,"name":"hoja","pbrMetallicRoughness":{"baseColorFactor":[0.800000011920929,0.800000011920929,0.800000011920929,1],"metallicFactor":0,"roughnessFactor":0.4000000059604645}},{"doubleSided":true,"name":"Material.001","pbrMetallicRoughness":{"baseColorFactor":[0.800000011920929,0.800000011920929,0.800000011920929,1],"metallicFactor":0,"roughnessFactor":0.4000000059604645}},{"doubleSided":true,"name":"Material.002","pbrMetallicRoughness":{"baseColorFactor":[0.800000011920929,0.800000011920929,0.800000011920929,1],"metallicFactor":0,"roughnessFactor":0.4000000059604645}},{"alphaMode":"BLEND","doubleSided":true,"name":"2","pbrMetallicRoughness":{"baseColorTexture":{"index":1},"metallicFactor":0,"roughnessFactor":0.5}},{"alphaMode":"BLEND","doubleSided":true,"name":"1back","pbrMetallicRoughness":{"baseColorTexture":{"index":2},"metallicFactor":0,"roughnessFactor":0.5}},{"alphaMode":"BLEND","doubleSided":true,"name":"3","pbrMetallicRoughness":{"baseColorTexture":{"index":3},"metallicFactor":0,"roughnessFactor":0.5}},{"alphaMode":"BLEND","doubleSided":true,"name":"3back","pbrMetallicRoughness":{"baseColorTexture":{"index":4},"metallicFactor":0,"roughnessFactor":0.5}},{"alphaMode":"BLEND","doubleSided":true,"name":"back2","pbrMetallicRoughness":{"baseColorTexture":{"index":5},"metallicFactor":0,"roughnessFactor":0.5}}],"meshes":[{"name":"1","primitives":[{"attributes":{"POSITION":0,"NORMAL":1,"TEXCOORD_0":2},"indices":3,"material":0},{"attributes":{"POSITION":4,"NORMAL":5,"TEXCOORD_0":6},"indices":7,"material":1},{"attributes":{"POSITION":8,"NORMAL":9,"TEXCOORD_0":10},"indices":7,"material":2},{"attributes":{"POSITION":11,"NORMAL":12,"TEXCOORD_0":13},"indices":14,"material":3},{"attributes":{"POSITION":15,"NORMAL":16,"TEXCOORD_0":17},"indices":3,"material":4},{"attributes":{"POSITION":18,"NORMAL":19,"TEXCOORD_0":20},"indices":3,"material":5},{"attributes":{"POSITION":21,"NORMAL":22,"TEXCOORD_0":23},"indices":3,"material":6},{"attributes":{"POSITION":24,"NORMAL":25,"TEXCOORD_0":26},"indices":3,"material":7},{"attributes":{"POSITION":27,"NORMAL":28,"TEXCOORD_0":29},"indices":3,"material":8}]}],"textures":[{"sampler":0,"source":0},{"sampler":0,"source":1},{"sampler":0,"source":2},{"sampler":0,"source":3},{"sampler":0,"source":4},{"sampler":0,"source":5}],"images":[{"mimeType":"image/png","name":"1","uri":"data:application/octet-stream;base64,"},{"mimeType":"image/png","name":"2","uri":"data:application/octet-stream;base64,"},{"mimeType":"image/png","name":"1back","uri":"data:application/octet-stream;base64,"},{"mimeType":"image/png","name":"3","uri":"data:application/octet-stream;base64,"},{"mimeType":"image/png","name":"3back","uri":"data:application/octet-stream;base64,"},{"mimeType":"image/png","name":"back2","uri":"data:application/octet-stream;base64,"}],"accessors":[{"bufferView":0,"componentType":5126,"count":4,"max":[0.37893983721733093,0,0.5],"min":[-0.37893983721733093,0,-0.5],"type":"VEC3"},{"bufferView":1,"componentType":5126,"count":4,"type":"VEC3"},{"bufferView":2,"componentType":5126,"count":4,"type":"VEC2"},{"bufferView":3,"componentType":5123,"count":6,"type":"SCALAR"},{"bufferView":4,"componentType":5126,"count":24,"max":[0.9921112060546875,0.11842763423919678,0.4999999701976776],"min":[0.3537147343158722,-0.01148499920964241,-0.5],"type":"VEC3"},{"bufferView":5,"componentType":5126,"count":24,"type":"VEC3"},{"bufferView":6,"componentType":5126,"count":24,"type":"VEC2"},{"bufferView":7,"componentType":5123,"count":36,"type":"SCALAR"},{"bufferView":8,"componentType":5126,"count":24,"max":[0.37778547406196594,-0.0006439886055886745,0.4999999701976776],"min":[-0.3800942003726959,-0.010644027963280678,-0.4999999701976776],"type":"VEC3"},{"bufferView":9,"componentType":5126,"count":24,"type":"VEC3"},{"bufferView":10,"componentType":5126,"count":24,"type":"VEC2"},{"bufferView":11,"componentType":5126,"count":24,"max":[1.2414898872375488,0.3110792338848114,0.4999999403953552],"min":[0.9542727470397949,0.10980475693941116,-0.5000000596046448],"type":"VEC3"},{"bufferView":12,"componentType":5126,"count":24,"type":"VEC3"},{"bufferView":13,"componentType":5126,"count":24,"type":"VEC2"},{"bufferView":14,"componentType":5123,"count":36,"type":"SCALAR"},{"bufferView":15,"componentType":5126,"count":4,"max":[0.9698376655578613,0.11895232647657394,0.4999999701976776],"min":[0.3523670434951782,-0.0028129741549491882,-0.5],"type":"VEC3"},{"bufferView":16,"componentType":5126,"count":4,"type":"VEC3"},{"bufferView":17,"componentType":5126,"count":4,"type":"VEC2"},{"bufferView":18,"componentType":5126,"count":4,"max":[0.37823280692100525,-0.011287922039628029,0.4999999701976776],"min":[-0.3796471059322357,-0.011288082227110863,-0.4999999701976776],"type":"VEC3"},{"bufferView":19,"componentType":5126,"count":4,"type":"VEC3"},{"bufferView":20,"componentType":5126,"count":4,"type":"VEC2"},{"bufferView":21,"componentType":5126,"count":4,"max":[1.2053577899932861,0.31135255098342896,0.4999999403953552],"min":[0.9521565437316895,0.11341898888349533,-0.5000000596046448],"type":"VEC3"},{"bufferView":22,"componentType":5126,"count":4,"type":"VEC3"},{"bufferView":23,"componentType":5126,"count":4,"type":"VEC2"},{"bufferView":24,"componentType":5126,"count":4,"max":[1.2436110973358154,0.3074689209461212,0.4999999403953552],"min":[0.9904096722602844,0.10953535884618759,-0.5000000596046448],"type":"VEC3"},{"bufferView":25,"componentType":5126,"count":4,"type":"VEC3"},{"bufferView":26,"componentType":5126,"count":4,"type":"VEC2"},{"bufferView":27,"componentType":5126,"count":4,"max":[0.9934589266777039,0.10975559055805206,0.4999999701976776],"min":[0.3759881854057312,-0.012009680271148682,-0.5],"type":"VEC3"},{"bufferView":28,"componentType":5126,"count":4,"type":"VEC3"},{"bufferView":29,"componentType":5126,"count":4,"type":"VEC2"}],"bufferViews":[{"buffer":0,"byteLength":48,"byteOffset":0},{"buffer":0,"byteLength":48,"byteOffset":48},{"buffer":0,"byteLength":32,"byteOffset":96},{"buffer":0,"byteLength":12,"byteOffset":128},{"buffer":0,"byteLength":288,"byteOffset":140},{"buffer":0,"byteLength":288,"byteOffset":428},{"buffer":0,"byteLength":192,"byteOffset":716},{"buffer":0,"byteLength":72,"byteOffset":908},{"buffer":0,"byteLength":288,"byteOffset":980},{"buffer":0,"byteLength":288,"byteOffset":1268},{"buffer":0,"byteLength":192,"byteOffset":1556},{"buffer":0,"byteLength":288,"byteOffset":1748},{"buffer":0,"byteLength":288,"byteOffset":2036},{"buffer":0,"byteLength":192,"byteOffset":2324},{"buffer":0,"byteLength":72,"byteOffset":2516},{"buffer":0,"byteLength":48,"byteOffset":2588},{"buffer":0,"byteLength":48,"byteOffset":2636},{"buffer":0,"byteLength":32,"byteOffset":2684},{"buffer":0,"byteLength":48,"byteOffset":2716},{"buffer":0,"byteLength":48,"byteOffset":2764},{"buffer":0,"byteLength":32,"byteOffset":2812},{"buffer":0,"byteLength":48,"byteOffset":2844},{"buffer":0,"byteLength":48,"byteOffset":2892},{"buffer":0,"byteLength":32,"byteOffset":2940},{"buffer":0,"byteLength":48,"byteOffset":2972},{"buffer":0,"byteLength":48,"byteOffset":3020},{"buffer":0,"byteLength":32,"byteOffset":3068},{"buffer":0,"byteLength":48,"byteOffset":3100},{"buffer":0,"byteLength":48,"byteOffset":3148},{"buffer":0,"byteLength":32,"byteOffset":3196}],"samplers":[{"magFilter":9729,"minFilter":9987,"wrapS":33071,"wrapT":33071}],"buffers":[{"byteLength":3228,"uri":"data:application/octet-stream;base64,"}]}